REM DIRINDEX 1\5,1\2\6,1\2\7,1\3\8,1\3\9,1\4\10,1\4\11,1\4\12
REM DIRNAME cjc026,folder01,folder02,folder03,folder04,folder05,folder06,folder07,folder08,folder09,folder10,folder11
TITLE ""
FILE "EJE_DB3000_5th_4B_34.mp3" MP3
  TRACK 01 AUDIO
    TITLE "0:"
    INDEX 01 00:00:00
  TRACK 02 AUDIO
    TITLE "10:cjc026_09492"
    INDEX 01 00:00:08
  TRACK 03 AUDIO
    TITLE "0:"
    INDEX 01 00:01:33
  TRACK 04 AUDIO
    TITLE "11:cjc026_09493"
    INDEX 01 00:01:73
  TRACK 05 AUDIO
    TITLE "0:"
    INDEX 01 00:03:34
  TRACK 06 AUDIO
    TITLE "12:cjc026_09494"
    INDEX 01 00:03:72
  TRACK 07 AUDIO
    TITLE "0:"
    INDEX 01 00:05:21
  TRACK 08 AUDIO
    TITLE "10:cjc026_09495"
    INDEX 01 00:05:59
  TRACK 09 AUDIO
    TITLE "0:"
    INDEX 01 00:07:04
  TRACK 10 AUDIO
    TITLE "11:cjc026_09496"
    INDEX 01 00:07:39
  TRACK 11 AUDIO
    TITLE "0:"
    INDEX 01 00:09:02
  TRACK 12 AUDIO
    TITLE "12:cjc026_09497"
    INDEX 01 00:09:40
  TRACK 13 AUDIO
    TITLE "0:"
    INDEX 01 00:10:60
  TRACK 14 AUDIO
    TITLE "10:cjc026_09498"
    INDEX 01 00:11:20
  TRACK 15 AUDIO
    TITLE "0:"
    INDEX 01 00:12:31
  TRACK 16 AUDIO
    TITLE "11:cjc026_09499"
    INDEX 01 00:12:72
  TRACK 17 AUDIO
    TITLE "0:"
    INDEX 01 00:14:19
  TRACK 18 AUDIO
    TITLE "12:cjc026_09500"
    INDEX 01 00:14:54
  TRACK 19 AUDIO
    TITLE "0:"
    INDEX 01 00:15:68
  TRACK 20 AUDIO
    TITLE "10:cjc026_09501"
    INDEX 01 00:16:28
  TRACK 21 AUDIO
    TITLE "0:"
    INDEX 01 00:17:39
  TRACK 22 AUDIO
    TITLE "11:cjc026_09502"
    INDEX 01 00:18:00
  TRACK 23 AUDIO
    TITLE "0:"
    INDEX 01 00:19:35
  TRACK 24 AUDIO
    TITLE "12:cjc026_09503"
    INDEX 01 00:19:73
  TRACK 25 AUDIO
    TITLE "0:"
    INDEX 01 00:21:07
  TRACK 26 AUDIO
    TITLE "10:cjc026_09504"
    INDEX 01 00:21:42
  TRACK 27 AUDIO
    TITLE "0:"
    INDEX 01 00:22:53
  TRACK 28 AUDIO
    TITLE "11:cjc026_09505"
    INDEX 01 00:23:16
  TRACK 29 AUDIO
    TITLE "0:"
    INDEX 01 00:24:38
  TRACK 30 AUDIO
    TITLE "12:cjc026_09506"
    INDEX 01 00:25:01
  TRACK 31 AUDIO
    TITLE "0:"
    INDEX 01 00:26:12
  TRACK 32 AUDIO
    TITLE "10:cjc026_09507"
    INDEX 01 00:26:48
  TRACK 33 AUDIO
    TITLE "0:"
    INDEX 01 00:28:08
  TRACK 34 AUDIO
    TITLE "11:cjc026_09508"
    INDEX 01 00:28:46
  TRACK 35 AUDIO
    TITLE "0:"
    INDEX 01 00:30:09
  TRACK 36 AUDIO
    TITLE "12:cjc026_09509"
    INDEX 01 00:30:45
  TRACK 37 AUDIO
    TITLE "0:"
    INDEX 01 00:32:03
  TRACK 38 AUDIO
    TITLE "10:cjc026_09510"
    INDEX 01 00:32:38
  TRACK 39 AUDIO
    TITLE "0:"
    INDEX 01 00:33:49
  TRACK 40 AUDIO
    TITLE "11:cjc026_09511"
    INDEX 01 00:34:12
  TRACK 41 AUDIO
    TITLE "0:"
    INDEX 01 00:35:34
  TRACK 42 AUDIO
    TITLE "12:cjc026_09512"
    INDEX 01 00:35:69
  TRACK 43 AUDIO
    TITLE "0:"
    INDEX 01 00:37:06
  TRACK 44 AUDIO
    TITLE "10:cjc026_09513"
    INDEX 01 00:37:43
  TRACK 45 AUDIO
    TITLE "0:"
    INDEX 01 00:38:57
  TRACK 46 AUDIO
    TITLE "11:cjc026_09514"
    INDEX 01 00:39:18
  TRACK 47 AUDIO
    TITLE "0:"
    INDEX 01 00:40:53
  TRACK 48 AUDIO
    TITLE "12:cjc026_09515"
    INDEX 01 00:41:16
  TRACK 49 AUDIO
    TITLE "0:"
    INDEX 01 00:42:27
  TRACK 50 AUDIO
    TITLE "10:cjc026_09516"
    INDEX 01 00:42:65
  TRACK 51 AUDIO
    TITLE "0:"
    INDEX 01 00:44:10
  TRACK 52 AUDIO
    TITLE "11:cjc026_09517"
    INDEX 01 00:44:45
  TRACK 53 AUDIO
    TITLE "0:"
    INDEX 01 00:45:64
  TRACK 54 AUDIO
    TITLE "12:cjc026_09518"
    INDEX 01 00:46:27
  TRACK 55 AUDIO
    TITLE "0:"
    INDEX 01 00:47:47
  TRACK 56 AUDIO
    TITLE "10:cjc026_09519"
    INDEX 01 00:48:07
  TRACK 57 AUDIO
    TITLE "0:"
    INDEX 01 00:49:13
  TRACK 58 AUDIO
    TITLE "11:cjc026_09520"
    INDEX 01 00:49:48
  TRACK 59 AUDIO
    TITLE "0:"
    INDEX 01 00:50:51
  TRACK 60 AUDIO
    TITLE "12:cjc026_09521"
    INDEX 01 00:51:09
  TRACK 61 AUDIO
    TITLE "0:"
    INDEX 01 00:52:17
  TRACK 62 AUDIO
    TITLE "10:cjc026_09522"
    INDEX 01 00:52:50
  TRACK 63 AUDIO
    TITLE "0:"
    INDEX 01 00:53:72
  TRACK 64 AUDIO
    TITLE "11:cjc026_09523"
    INDEX 01 00:54:35
  TRACK 65 AUDIO
    TITLE "0:"
    INDEX 01 00:56:03
  TRACK 66 AUDIO
    TITLE "12:cjc026_09524"
    INDEX 01 00:56:41
  TRACK 67 AUDIO
    TITLE "0:"
    INDEX 01 00:57:61
  TRACK 68 AUDIO
    TITLE "10:cjc026_09525"
    INDEX 01 00:58:24
  TRACK 69 AUDIO
    TITLE "0:"
    INDEX 01 00:59:35
  TRACK 70 AUDIO
    TITLE "11:cjc026_09526"
    INDEX 01 01:00:00
  TRACK 71 AUDIO
    TITLE "0:"
    INDEX 01 01:01:28
  TRACK 72 AUDIO
    TITLE "12:cjc026_09527"
    INDEX 01 01:01:60
  TRACK 73 AUDIO
    TITLE "0:"
    INDEX 01 01:03:02
  TRACK 74 AUDIO
    TITLE "10:cjc026_09528"
    INDEX 01 01:03:37
  TRACK 75 AUDIO
    TITLE "0:"
    INDEX 01 01:04:54
  TRACK 76 AUDIO
    TITLE "11:cjc026_09529"
    INDEX 01 01:05:17
  TRACK 77 AUDIO
    TITLE "0:"
    INDEX 01 01:06:55
  TRACK 78 AUDIO
    TITLE "12:cjc026_09530"
    INDEX 01 01:07:15
  TRACK 79 AUDIO
    TITLE "0:"
    INDEX 01 01:08:32
